<?xml version="1.0" encoding="UTF-8" standalone="no"?>
<!-- Created with Inkscape (http://www.inkscape.org/) -->

<svg
   width="25.056847mm"
   height="4.0948372mm"
   viewBox="0 0 25.056847 4.0948372"
   version="1.1"
   id="svg1"
   xmlns="http://www.w3.org/2000/svg"
   xmlns:svg="http://www.w3.org/2000/svg">
  <defs
     id="defs1" />
  <g
     id="layer1"
     transform="translate(-13.405365,-11.194449)">
    <path
       d="m 14.294199,14.425257 q -0.355533,0 -0.591178,-0.155029 -0.235644,-0.155029 -0.297656,-0.454753 l 0.353467,-0.08475 q 0.04961,0.190169 0.186035,0.279053 0.138492,0.08888 0.345198,0.08888 0.241845,0 0.384472,-0.103353 0.144694,-0.103352 0.144694,-0.245979 0,-0.237712 -0.338997,-0.318327 l -0.384472,-0.09095 q -0.620117,-0.146761 -0.620117,-0.630452 0,-0.198438 0.111621,-0.349333 0.111621,-0.152962 0.303857,-0.237711 0.194303,-0.08682 0.440283,-0.08682 0.357601,0 0.553971,0.157096 0.198437,0.155029 0.276985,0.398942 l -0.33693,0.08682 Q 14.77789,12.554572 14.666269,12.453286 14.556715,12.352 14.333473,12.352 q -0.206705,0 -0.345198,0.09508 -0.136426,0.09508 -0.136426,0.239778 0,0.128158 0.09302,0.206706 0.09302,0.07648 0.295589,0.124023 l 0.349332,0.08268 q 0.314192,0.07441 0.465088,0.23151 0.150895,0.15503 0.150895,0.392741 0,0.202571 -0.115756,0.361735 -0.113688,0.157096 -0.320393,0.248046 -0.204639,0.09095 -0.475423,0.09095 z m 2.35851,-2.360578 v 0.318327 h -0.475422 v 1.393195 q 0,0.15503 0.06201,0.227377 0.06408,0.07028 0.21084,0.07028 0.03514,0 0.08888,-0.0083 0.05581,-0.0083 0.101286,-0.01654 l 0.07648,0.314192 q -0.05788,0.02067 -0.132291,0.03101 -0.07235,0.01033 -0.144694,0.01033 -0.299723,0 -0.467155,-0.157096 -0.167431,-0.159163 -0.167431,-0.44235 V 12.38297 h -0.347266 v -0.318327 h 0.347266 v -0.549836 h 0.37207 v 0.549836 z m 0.475423,2.310969 v -2.310969 h 0.37207 v 2.310969 z m 0.188102,-2.68924 q -0.105419,0 -0.181901,-0.07235 -0.07648,-0.07235 -0.07648,-0.173632 0,-0.103353 0.07648,-0.173633 0.07648,-0.07235 0.181901,-0.07235 0.107487,0 0.183968,0.07235 0.07648,0.07028 0.07648,0.173633 0,0.101285 -0.07648,0.173632 -0.07648,0.07235 -0.183968,0.07235 z m 0.837158,2.68924 v -2.310969 h 0.361735 l 0.0021,0.423747 q 0.08475,-0.233577 0.262516,-0.349333 0.179833,-0.115755 0.384472,-0.115755 0.227376,0 0.376204,0.130225 0.150895,0.128157 0.212907,0.341064 0.08268,-0.219108 0.279052,-0.345198 0.198438,-0.126091 0.448551,-0.126091 0.200505,0 0.365869,0.08682 0.165365,0.08682 0.262516,0.262516 0.09922,0.175699 0.09922,0.444417 v 1.55856 h -0.374137 v -1.548225 q 0,-0.250114 -0.14056,-0.357601 -0.138493,-0.107487 -0.324528,-0.107487 -0.233577,0 -0.367936,0.142627 -0.134358,0.142627 -0.134358,0.361735 v 1.508951 h -0.37207 v -1.585432 q 0,-0.192236 -0.128158,-0.310058 -0.128157,-0.117823 -0.324527,-0.117823 -0.202572,0 -0.359668,0.14056 -0.157096,0.14056 -0.157096,0.417545 v 1.455208 z m 3.708298,0 v -2.310969 h 0.361735 l 0.0021,0.423747 q 0.08475,-0.233577 0.262516,-0.349333 0.179834,-0.115755 0.384472,-0.115755 0.227376,0 0.376204,0.130225 0.150895,0.128157 0.212907,0.341064 0.08268,-0.219108 0.279052,-0.345198 0.198438,-0.126091 0.448552,-0.126091 0.200504,0 0.365868,0.08682 0.165365,0.08682 0.262516,0.262516 0.09922,0.175699 0.09922,0.444417 v 1.55856 h -0.374137 v -1.548225 q 0,-0.250114 -0.14056,-0.357601 -0.138492,-0.107487 -0.324527,-0.107487 -0.233578,0 -0.367936,0.142627 -0.134359,0.142627 -0.134359,0.361735 v 1.508951 h -0.37207 v -1.585432 q 0,-0.192236 -0.128157,-0.310058 -0.128158,-0.117823 -0.324528,-0.117823 -0.202572,0 -0.359668,0.14056 -0.157096,0.14056 -0.157096,0.417545 v 1.455208 z m 3.708298,0 v -2.310969 h 0.37207 v 2.310969 z m 0.188102,-2.68924 q -0.10542,0 -0.181901,-0.07235 -0.07648,-0.07235 -0.07648,-0.173632 0,-0.103353 0.07648,-0.173633 0.07648,-0.07235 0.181901,-0.07235 0.107487,0 0.183968,0.07235 0.07648,0.07028 0.07648,0.173633 0,0.101285 -0.07648,0.173632 -0.07648,0.07235 -0.183968,0.07235 z m 1.773533,3.602878 q -0.384472,0 -0.613916,-0.14056 -0.229443,-0.140559 -0.33693,-0.330729 l 0.30179,-0.194303 q 0.04961,0.06615 0.121957,0.146761 0.07441,0.08061 0.198437,0.136426 0.12609,0.05788 0.328662,0.05788 0.276985,0 0.454752,-0.132291 0.179834,-0.132292 0.179834,-0.417545 v -0.463021 h -0.03514 q -0.03927,0.06615 -0.111621,0.157096 -0.07028,0.09095 -0.204638,0.161231 -0.132292,0.06821 -0.355534,0.06821 -0.276985,0 -0.49816,-0.130225 -0.221175,-0.132292 -0.349333,-0.384472 -0.128157,-0.252181 -0.128157,-0.613916 0,-0.3576 0.12609,-0.620116 0.126091,-0.264584 0.347265,-0.409277 0.223242,-0.144694 0.510563,-0.144694 0.223242,0 0.355534,0.07441 0.134358,0.07235 0.206705,0.167431 0.07235,0.09509 0.111621,0.157096 h 0.03514 v -0.370003 h 0.361735 v 2.370913 q 0,0.297656 -0.134359,0.485758 -0.134358,0.190169 -0.363801,0.279053 -0.227377,0.08888 -0.508496,0.08888 z m -0.01034,-1.281574 q 0.314192,0 0.481624,-0.212907 0.167431,-0.214974 0.167431,-0.593245 0,-0.367936 -0.165364,-0.599446 -0.163298,-0.233577 -0.483691,-0.233577 -0.219108,0 -0.365869,0.113688 -0.146761,0.111621 -0.221175,0.299723 -0.07235,0.188102 -0.07235,0.419612 0,0.355534 0.167431,0.580843 0.167432,0.225309 0.49196,0.225309 z m 3.770309,-1.943033 v 0.318327 H 30.81617 v 1.393195 q 0,0.15503 0.06201,0.227377 0.06408,0.07028 0.21084,0.07028 0.03514,0 0.08888,-0.0083 0.05581,-0.0083 0.101286,-0.01654 l 0.07648,0.314192 q -0.05788,0.02067 -0.132291,0.03101 -0.07235,0.01033 -0.144694,0.01033 -0.299723,0 -0.467155,-0.157096 -0.167431,-0.159163 -0.167431,-0.44235 V 12.38297 h -0.347266 v -0.318327 h 0.347266 v -0.549836 h 0.37207 v 0.549836 z m 1.405598,2.360578 q -0.334863,0 -0.578776,-0.148828 -0.241845,-0.148828 -0.374137,-0.415478 -0.130224,-0.26665 -0.130224,-0.622184 0,-0.355534 0.128157,-0.626318 0.128158,-0.270784 0.361735,-0.423746 0.235644,-0.152962 0.549837,-0.152962 0.183968,0 0.361735,0.06201 0.179833,0.05995 0.324527,0.196371 0.146761,0.134358 0.233578,0.355533 0.08682,0.221175 0.08682,0.541569 v 0.155029 h -1.670181 q 0.01447,0.361735 0.206706,0.556038 0.194303,0.192236 0.502294,0.192236 0.204639,0 0.351399,-0.08888 0.148828,-0.09095 0.212907,-0.266651 l 0.359668,0.09922 q -0.08062,0.262516 -0.326595,0.425814 -0.243912,0.16123 -0.599446,0.16123 z m -0.704866,-1.393196 h 1.289843 q -0.02687,-0.295589 -0.18603,-0.479556 -0.157097,-0.186035 -0.44235,-0.186035 -0.198438,0 -0.343131,0.09302 -0.142627,0.09302 -0.225309,0.243913 -0.08268,0.150895 -0.09302,0.328661 z m 3.141923,1.393196 q -0.314192,0 -0.551903,-0.148828 -0.235645,-0.148828 -0.367936,-0.417545 -0.132292,-0.268718 -0.132292,-0.624251 0,-0.361735 0.132292,-0.630452 0.132291,-0.270784 0.367936,-0.419612 0.237711,-0.148828 0.551903,-0.148828 0.334863,0 0.587044,0.169498 0.254248,0.167432 0.349333,0.469222 l -0.357601,0.101286 q -0.05168,-0.177767 -0.202571,-0.291455 -0.148828,-0.115755 -0.376205,-0.115755 -0.23151,0 -0.380338,0.121956 -0.148828,0.119889 -0.221175,0.316259 -0.07235,0.196371 -0.07235,0.427881 0,0.227376 0.07235,0.423746 0.07235,0.194303 0.221175,0.314193 0.148828,0.119889 0.380338,0.119889 0.233578,0 0.384473,-0.117822 0.152962,-0.119889 0.204638,-0.307992 l 0.355534,0.101286 q -0.09302,0.307991 -0.349333,0.483691 -0.256314,0.173633 -0.595312,0.173633 z m 1.850015,-1.434537 v 1.384928 h -0.37207 v -3.079913 h 0.37207 v 1.169953 q 0.113688,-0.23151 0.289388,-0.330729 0.177767,-0.09922 0.405143,-0.09922 0.351399,0 0.566373,0.21704 0.217041,0.217041 0.217041,0.655257 v 1.46761 H 38.08807 v -1.436604 q 0,-0.26665 -0.14056,-0.417545 -0.138492,-0.150895 -0.380338,-0.150895 -0.250114,0 -0.417545,0.163297 -0.165365,0.16123 -0.165365,0.456819 z"
       id="text2"
       style="font-size:4.23333px;font-family:Inter;-inkscape-font-specification:Inter;fill:#333333;stroke-width:0.264583"
       aria-label="stimmig tech" />
  </g>
</svg>
